<svg xmlns="http://www.w3.org/2000/svg" xmlns:xlink="http://www.w3.org/1999/xlink" width="39" height="38" viewBox="0 0 39 38"><defs><path id="mmgsa" d="M718.75 214.42c-4.97 0-9 4.014-9 8.963h18c0-4.95-4.03-8.963-9-8.963m18.482 20.315h-6.735v-8.654l4.99-4.77a.942.942 0 0 0 0-1.377 1.05 1.05 0 0 0-1.439 0l-5.3 5.068h-19.515l-5.3-5.068a1.049 1.049 0 0 0-1.439 0 .942.942 0 0 0 0 1.376l4.926 4.71v8.715h-5.653c-.561 0-1.017.435-1.017.973s.456.973 1.017.973h5.653c0 2.489.786 4.796 2.11 6.697l-7.036 6.727a.942.942 0 0 0 0 1.377c.198.19.459.285.72.285.26 0 .52-.096.719-.285l6.865-6.565a11.466 11.466 0 0 0 6.779 3.35v-18.885h2.644v18.904a11.474 11.474 0 0 0 6.928-3.401l6.9 6.597c.198.19.459.285.718.285.26 0 .521-.096.72-.285a.942.942 0 0 0 0-1.377l-7.073-6.763a11.692 11.692 0 0 0 2.083-6.66h6.735c.561 0 1.018-.436 1.018-.974s-.457-.973-1.018-.973"/></defs><g><g transform="translate(-700 -214)"><use fill="#fff" xlink:href="#mmgsa"/></g></g></svg>