<svg xmlns="http://www.w3.org/2000/svg" xmlns:xlink="http://www.w3.org/1999/xlink" width="27" height="35" viewBox="0 0 27 35"><defs><path id="5a1ma" d="M81.752 244.662a6.698 6.698 0 0 1-.379-2.223c0-2.383 1.247-4.472 3.125-5.671.008 0 .017-.009.025-.009a6.07 6.07 0 0 0 .194-.117c.059-.042.118-.076.185-.11 3.192-1.903 5.323-5.376 5.323-9.353 0-.688-.067-1.367-.185-2.022-.927-4.906-5.146-8.649-10.284-8.867a6.71 6.71 0 0 1-2.3 8.498c-.033.026-.075.05-.117.077-2.897 1.962-4.8 5.275-4.8 9.025 0 .688.067 1.368.185 2.022.85 4.497 4.472 8.028 9.028 8.75m11.535 2.87h-23.81c-.791 0-1.44.646-1.44 1.434 0 .788.649 1.433 1.44 1.433h23.81a1.44 1.44 0 0 0 1.438-1.433 1.44 1.44 0 0 0-1.438-1.434"/></defs><g><g transform="translate(-68 -216)"><use fill="#fff" xlink:href="#5a1ma"/></g></g></svg>