<svg xmlns="http://www.w3.org/2000/svg" xmlns:xlink="http://www.w3.org/1999/xlink" width="37" height="43" viewBox="0 0 37 43"><defs><path id="rz4ta" d="M394.424 254.3c-.29-.191-.401-.447-.365-.807.847-8.421 1.099-16.868 1.024-25.328-.006-.733.192-.994.872-1.215.044-.015.108-.01.133-.04.099-.114.27-.245.264-.36-.07-1.236-.067-2.488-.282-3.7-.42-2.366-2.437-4.215-4.934-4.587-.875-.13-1.78-.12-2.667-.09-.822.029-1.523.453-2.182.924-1.254.895-2.3 2.006-3.259 3.212-.154.193-.397.313-.6.466-.128-.24-.368-.482-.365-.72.006-.61.006-1.261.213-1.817 1.068-2.874 3.079-4.917 5.758-6.251 2.68-1.335 5.548-2.05 8.52-2.334.17-.016.336-.058.503-.088h2.728c.199.03.397.086.597.089 1.24.018 2.364.28 3.093 1.432.033.052.088.09.132.135.42.426.907.479 1.423.23.251-.122.477-.3.71-.46.247-.17.347-.39.367-.714.016-.244.229-.475.354-.712h5.643v8.776c-.203.126-.403.36-.608.363-1.597.03-3.195.02-4.793.015-.396-.002-.606-.225-.615-.626-.008-.35.013-.7-.01-1.048-.01-.14-.066-.318-.165-.403a2.129 2.129 0 0 0-2.454-.239c-1.628.955-2.738 2.266-2.754 4.286-.01 1.375-.002 2.75-.002 4.146.16.044.341.093.522.144.59.165.804.44.816 1.048.004.206.006.413.004.62-.08 8.3.194 16.584 1.02 24.846.036.359-.074.616-.365.807z"/></defs><g><g transform="rotate(30 604.231 -589.554)"><use fill="#fff" xlink:href="#rz4ta"/></g></g></svg>